<svg width="16" height="16" viewBox="0 0 16 16" fill="none" xmlns="http://www.w3.org/2000/svg">
<path fill-rule="evenodd" clip-rule="evenodd" d="M9.83801 1.74732C10.4234 1.16189 11.2174 0.833008 12.0453 0.833008C12.8733 0.833008 13.6673 1.16189 14.2527 1.74732C14.8381 2.33274 15.167 3.12674 15.167 3.95465C15.167 4.78256 14.8381 5.57656 14.2527 6.16198L7.92868 12.486C7.56734 12.8473 7.35535 13.0593 7.11801 13.244C6.8389 13.4626 6.5389 13.6482 6.21801 13.8006C5.94734 13.9293 5.66201 14.0246 5.17801 14.186L2.95668 14.926L2.42201 15.1046C2.20936 15.1756 1.98114 15.186 1.76295 15.1345C1.54475 15.0831 1.3452 14.9718 1.18668 14.8133C1.02815 14.6548 0.916928 14.4552 0.86547 14.237C0.814012 14.0188 0.824357 13.7906 0.895345 13.578L1.81401 10.8226C1.97534 10.338 2.07068 10.0526 2.19934 9.78132C2.35223 9.46132 2.53779 9.16131 2.75601 8.88131C2.94001 8.64531 3.15268 8.43265 3.51401 8.07132L9.83801 1.74732ZM2.93334 13.8806L4.82735 13.2486C5.35468 13.0726 5.57868 12.9973 5.78734 12.898C6.04157 12.7762 6.28001 12.6289 6.50268 12.456C6.68468 12.3133 6.85268 12.1473 7.24601 11.754L12.2927 6.70731C11.6008 6.46213 10.9727 6.06482 10.4547 5.54465C9.93499 5.02653 9.53814 4.39845 9.29334 3.70665L4.24668 8.75332C3.85334 9.14598 3.68668 9.31332 3.54468 9.49598C3.37134 9.7182 3.22401 9.95665 3.10268 10.2113C3.00334 10.42 2.92801 10.644 2.75201 11.1713L2.12001 13.0666L2.93334 13.8806ZM10.1033 2.89532C10.1267 3.01198 10.1647 3.17065 10.2293 3.35532C10.4244 3.91335 10.7435 4.41984 11.1627 4.83665C11.5793 5.25574 12.0856 5.57486 12.6433 5.76998C12.8287 5.83465 12.9873 5.87265 13.104 5.89598L13.5453 5.45465C13.9409 5.05634 14.1624 4.51751 14.1614 3.95619C14.1604 3.39486 13.937 2.85681 13.5401 2.45989C13.1432 2.06297 12.6051 1.83955 12.0438 1.83857C11.4825 1.83759 10.9436 2.05912 10.5453 2.45465L10.1033 2.89532Z" fill="white"/>
</svg>
